<mxfile host="app.diagrams.net" modified="2023-12-17T14:42:09.797Z" agent="Mozilla/5.0 (Windows NT 10.0; Win64; x64) AppleWebKit/537.36 (KHTML, like Gecko) Chrome/120.0.0.0 Safari/537.36" version="22.1.11" etag="V3FYvHPNpXFjefONknGX" type="github">
  <diagram name="Страница — 1" id="0MV36oEUkLjYBx1AANBR">
    <mxGraphModel>
      <root>
        <mxCell id="0" />
        <mxCell id="1" parent="0" />
      </root>
    </mxGraphModel>
  </diagram>
</mxfile>
